<svg xmlns="http://www.w3.org/2000/svg" width="64" height="64" viewBox="0 0 16 16" fill="none" style="image-rendering: pixelated">
  <rect x="5" y="1" width="6" height="1" fill="#52525b"/>
  <rect x="4" y="2" width="8" height="1" fill="#52525b"/>
  <rect x="5" y="3" width="6" height="1" fill="#e09f3e"/>
  <rect x="4" y="4" width="8" height="3" fill="#e09f3e"/>
  <rect x="5" y="4" width="2" height="2" fill="#08080c"/>
  <rect x="9" y="4" width="2" height="2" fill="#08080c"/>
  <rect x="7" y="5" width="2" height="1" fill="#52525b"/>
  <rect x="5" y="4" width="1" height="1" fill="#5eead4"/>
  <rect x="9" y="4" width="1" height="1" fill="#5eead4"/>
  <rect x="6" y="6" width="4" height="1" fill="#a1a1aa"/>
  <rect x="3" y="7" width="10" height="1" fill="#52525b"/>
  <rect x="2" y="8" width="12" height="4" fill="#27272a"/>
  <rect x="6" y="8" width="4" height="1" fill="#52525b"/>
  <rect x="5" y="10" width="6" height="1" fill="#52525b"/>
  <rect x="3" y="12" width="3" height="1" fill="#e09f3e"/>
  <rect x="10" y="12" width="3" height="1" fill="#e09f3e"/>
  <rect x="2" y="13" width="12" height="2" fill="#52525b"/>
  <rect x="3" y="13" width="1" height="1" fill="#5eead4"/>
  <rect x="5" y="13" width="1" height="1" fill="#5eead4"/>
  <rect x="7" y="13" width="2" height="1" fill="#5eead4"/>
  <rect x="10" y="13" width="1" height="1" fill="#5eead4"/>
  <rect x="12" y="13" width="1" height="1" fill="#5eead4"/>
</svg>
