<svg xmlns="http://www.w3.org/2000/svg" width="96" height="128" viewBox="0 0 24 32" fill="none" style="image-rendering: pixelated">
  <!-- tail -->
  <rect x="4" y="0" width="2" height="2" fill="#8b6914"/>
  <rect x="2" y="2" width="2" height="2" fill="#8b6914"/>
  <rect x="0" y="4" width="2" height="4" fill="#8b6914"/>
  <rect x="2" y="7" width="2" height="2" fill="#8b6914"/>
  <!-- arm reaching right -->
  <rect x="18" y="8" width="2" height="2" fill="#c4841d"/>
  <rect x="20" y="7" width="2" height="2" fill="#c4841d"/>
  <rect x="22" y="6" width="2" height="3" fill="#e09f3e"/>
  <!-- head -->
  <rect x="8" y="6" width="8" height="2" fill="#c4841d"/>
  <rect x="6" y="8" width="12" height="6" fill="#c4841d"/>
  <!-- face -->
  <rect x="8" y="9" width="8" height="4" fill="#e09f3e"/>
  <!-- eyes -->
  <rect x="9" y="10" width="2" height="2" fill="#08080c"/>
  <rect x="13" y="10" width="2" height="2" fill="#08080c"/>
  <rect x="9" y="10" width="1" height="1" fill="#fff"/>
  <rect x="13" y="10" width="1" height="1" fill="#fff"/>
  <!-- nose/mouth -->
  <rect x="11" y="11" width="2" height="1" fill="#a1653a"/>
  <rect x="10" y="12" width="4" height="1" fill="#a1653a"/>
  <!-- ears -->
  <rect x="5" y="9" width="2" height="3" fill="#e09f3e"/>
  <rect x="17" y="9" width="2" height="3" fill="#e09f3e"/>
  <!-- body -->
  <rect x="8" y="14" width="8" height="6" fill="#c4841d"/>
  <!-- left arm -->
  <rect x="6" y="14" width="2" height="6" fill="#c4841d"/>
  <rect x="5" y="20" width="2" height="2" fill="#e09f3e"/>
  <!-- legs -->
  <rect x="9" y="20" width="2" height="4" fill="#c4841d"/>
  <rect x="13" y="20" width="2" height="4" fill="#c4841d"/>
  <rect x="8" y="24" width="3" height="2" fill="#e09f3e"/>
  <rect x="13" y="24" width="3" height="2" fill="#e09f3e"/>
  <!-- belly -->
  <rect x="10" y="15" width="4" height="3" fill="#e09f3e"/>
</svg>
