<svg xmlns="http://www.w3.org/2000/svg" width="64" height="64" viewBox="0 0 16 16" fill="none" style="image-rendering: pixelated">
  <rect x="5" y="1" width="6" height="1" fill="#d4d4d8"/>
  <rect x="4" y="2" width="8" height="1" fill="#d4d4d8"/>
  <rect x="3" y="3" width="10" height="5" fill="#d4d4d8"/>
  <rect x="4" y="8" width="8" height="2" fill="#d4d4d8"/>
  <rect x="4" y="4" width="3" height="3" fill="#08080c"/>
  <rect x="9" y="4" width="3" height="3" fill="#08080c"/>
  <rect x="5" y="5" width="1" height="1" fill="#fb7185"/>
  <rect x="10" y="5" width="1" height="1" fill="#fb7185"/>
  <rect x="7" y="7" width="2" height="1" fill="#a1a1aa"/>
  <rect x="5" y="10" width="1" height="2" fill="#d4d4d8"/>
  <rect x="7" y="10" width="1" height="2" fill="#d4d4d8"/>
  <rect x="9" y="10" width="1" height="2" fill="#d4d4d8"/>
  <rect x="6" y="10" width="1" height="1" fill="#08080c"/>
  <rect x="8" y="10" width="1" height="1" fill="#08080c"/>
  <rect x="10" y="10" width="1" height="1" fill="#08080c"/>
  <rect x="5" y="12" width="6" height="1" fill="#a1a1aa"/>
</svg>
