<svg xmlns="http://www.w3.org/2000/svg" width="80" height="96" viewBox="0 0 20 24" fill="none" style="image-rendering: pixelated">
  <!-- beanie -->
  <rect x="6" y="0" width="8" height="2" fill="#52525b"/>
  <rect x="6" y="0" width="8" height="1" fill="#3f3f46"/>
  <!-- head -->
  <rect x="5" y="2" width="10" height="6" fill="#e09f3e"/>
  <!-- shades -->
  <rect x="6" y="3" width="3" height="2" fill="#08080c"/>
  <rect x="11" y="3" width="3" height="2" fill="#08080c"/>
  <rect x="9" y="4" width="2" height="1" fill="#52525b"/>
  <rect x="6" y="3" width="1" height="1" fill="#5eead4"/>
  <rect x="11" y="3" width="1" height="1" fill="#5eead4"/>
  <!-- mouth -->
  <rect x="8" y="6" width="4" height="1" fill="#c4841d"/>
  <!-- body -->
  <rect x="6" y="8" width="8" height="7" fill="#27272a"/>
  <rect x="8" y="8" width="4" height="2" fill="#3f3f46"/>
  <!-- arms -->
  <rect x="4" y="9" width="2" height="5" fill="#27272a"/>
  <rect x="14" y="9" width="2" height="5" fill="#27272a"/>
  <rect x="3" y="14" width="2" height="1" fill="#e09f3e"/>
  <rect x="15" y="14" width="2" height="1" fill="#e09f3e"/>
  <!-- legs -->
  <rect x="7" y="15" width="2" height="5" fill="#27272a"/>
  <rect x="11" y="15" width="2" height="5" fill="#27272a"/>
  <!-- shoes -->
  <rect x="6" y="20" width="3" height="2" fill="#52525b"/>
  <rect x="11" y="20" width="3" height="2" fill="#52525b"/>
  <rect x="6" y="22" width="3" height="1" fill="#3f3f46"/>
  <rect x="11" y="22" width="3" height="1" fill="#3f3f46"/>
</svg>
